<svg width="532" height="483" viewBox="0 0 532 483" fill="none" xmlns="http://www.w3.org/2000/svg">
<rect y="229" width="438" height="254" rx="43" fill="#27AE60"/>
<path d="M347.5 229C353.667 234.833 365.6 253.1 364 279.5C363.121 294 363.4 321.6 401 324C411 324.638 429.2 326.7 438 333.5" stroke="#139A4C"/>
<path d="M323 229C329.167 234.833 348.5 260 344.5 302.5C343.139 316.963 348.9 340.1 386.5 342.5C398 343.234 428.7 350.2 437.5 357" stroke="#139A4C"/>
<path d="M0 408V440C0 463.748 19.2518 483 43 483H124C109.2 387.8 35.1667 393.333 0 408Z" fill="#139A4C"/>
<path d="M44.7727 377.614H48.4318V388H49.8409V377.614H53.5V376.364H44.7727V377.614ZM57.7727 388.182C60.1364 388.182 61.7273 386.386 61.7273 383.682C61.7273 380.955 60.1364 379.159 57.7727 379.159C55.4091 379.159 53.8182 380.955 53.8182 383.682C53.8182 386.386 55.4091 388.182 57.7727 388.182ZM57.7727 386.977C55.9773 386.977 55.1591 385.432 55.1591 383.682C55.1591 381.932 55.9773 380.364 57.7727 380.364C59.5682 380.364 60.3864 381.932 60.3864 383.682C60.3864 385.432 59.5682 386.977 57.7727 386.977ZM67.5696 379.273H65.706V377.182H64.3651V379.273H63.0469V380.409H64.3651V385.864C64.3651 387.386 65.5923 388.114 66.7287 388.114C67.2287 388.114 67.5469 388.023 67.7287 387.955L67.456 386.75C67.3423 386.773 67.1605 386.818 66.8651 386.818C66.2741 386.818 65.706 386.636 65.706 385.5V380.409H67.5696V379.273ZM72.1548 388.205C73.6776 388.205 74.473 387.386 74.7457 386.818H74.8139V388H76.1548V382.25C76.1548 379.477 74.0412 379.159 72.9276 379.159C71.6094 379.159 70.1094 379.614 69.4276 381.205L70.7003 381.659C70.9957 381.023 71.6946 380.341 72.973 380.341C74.206 380.341 74.8139 380.994 74.8139 382.114V382.159C74.8139 382.807 74.1548 382.75 72.5639 382.955C70.9446 383.165 69.1776 383.523 69.1776 385.523C69.1776 387.227 70.4957 388.205 72.1548 388.205ZM72.3594 387C71.2912 387 70.5185 386.523 70.5185 385.591C70.5185 384.568 71.4503 384.25 72.4957 384.114C73.0639 384.045 74.5866 383.886 74.8139 383.614V384.841C74.8139 385.932 73.9503 387 72.3594 387ZM79.9432 376.364H78.6023V388H79.9432V376.364ZM87.081 388H88.3764V386.659H88.5355C88.831 387.136 89.3991 388.182 91.081 388.182C93.2628 388.182 94.7855 386.432 94.7855 383.659C94.7855 380.909 93.2628 379.159 91.0582 379.159C89.3537 379.159 88.831 380.205 88.5355 380.659H88.4219V376.364H87.081V388ZM88.3991 383.636C88.3991 381.682 89.2628 380.364 90.8991 380.364C92.6037 380.364 93.4446 381.795 93.4446 383.636C93.4446 385.5 92.581 386.977 90.8991 386.977C89.2855 386.977 88.3991 385.614 88.3991 383.636ZM99.4048 388.205C100.928 388.205 101.723 387.386 101.996 386.818H102.064V388H103.405V382.25C103.405 379.477 101.291 379.159 100.178 379.159C98.8594 379.159 97.3594 379.614 96.6776 381.205L97.9503 381.659C98.2457 381.023 98.9446 380.341 100.223 380.341C101.456 380.341 102.064 380.994 102.064 382.114V382.159C102.064 382.807 101.405 382.75 99.8139 382.955C98.1946 383.165 96.4276 383.523 96.4276 385.523C96.4276 387.227 97.7457 388.205 99.4048 388.205ZM99.6094 387C98.5412 387 97.7685 386.523 97.7685 385.591C97.7685 384.568 98.7003 384.25 99.7457 384.114C100.314 384.045 101.837 383.886 102.064 383.614V384.841C102.064 385.932 101.2 387 99.6094 387ZM107.193 376.364H105.852V388H107.193V376.364ZM112.217 388.205C113.74 388.205 114.536 387.386 114.808 386.818H114.876V388H116.217V382.25C116.217 379.477 114.104 379.159 112.99 379.159C111.672 379.159 110.172 379.614 109.49 381.205L110.763 381.659C111.058 381.023 111.757 380.341 113.036 380.341C114.268 380.341 114.876 380.994 114.876 382.114V382.159C114.876 382.807 114.217 382.75 112.626 382.955C111.007 383.165 109.24 383.523 109.24 385.523C109.24 387.227 110.558 388.205 112.217 388.205ZM112.422 387C111.354 387 110.581 386.523 110.581 385.591C110.581 384.568 111.513 384.25 112.558 384.114C113.126 384.045 114.649 383.886 114.876 383.614V384.841C114.876 385.932 114.013 387 112.422 387ZM120.006 382.75C120.006 381.227 120.949 380.364 122.233 380.364C123.477 380.364 124.233 381.176 124.233 382.545V388H125.574V382.455C125.574 380.227 124.386 379.159 122.619 379.159C121.301 379.159 120.483 379.75 120.074 380.636H119.96V379.273H118.665V388H120.006V382.75ZM131.57 388.182C133.501 388.182 134.774 387 135.001 385.455H133.661C133.411 386.409 132.615 386.977 131.57 386.977C129.979 386.977 128.956 385.659 128.956 383.636C128.956 381.659 130.001 380.364 131.57 380.364C132.751 380.364 133.456 381.091 133.661 381.886H135.001C134.774 380.25 133.388 379.159 131.547 379.159C129.183 379.159 127.615 381.023 127.615 383.682C127.615 386.295 129.115 388.182 131.57 388.182ZM140.621 388.182C142.393 388.182 143.689 387.295 144.098 385.977L142.803 385.614C142.462 386.523 141.672 386.977 140.621 386.977C139.047 386.977 137.962 385.96 137.899 384.091H144.234V383.523C144.234 380.273 142.303 379.159 140.484 379.159C138.121 379.159 136.553 381.023 136.553 383.705C136.553 386.386 138.098 388.182 140.621 388.182ZM137.899 382.932C137.99 381.574 138.95 380.364 140.484 380.364C141.939 380.364 142.871 381.455 142.871 382.932H137.899Z" fill="white"/>
<path d="M52.9702 439.727V412.455H54.7173V439.727H52.9702ZM58.0092 421.18C57.9098 420.249 57.4908 419.525 56.7521 419.006C56.0206 418.488 55.0689 418.229 53.897 418.229C53.0732 418.229 52.3665 418.353 51.777 418.602C51.1875 418.85 50.7365 419.187 50.424 419.614C50.1115 420.04 49.9517 420.526 49.9446 421.073C49.9446 421.528 50.0476 421.922 50.2536 422.256C50.4666 422.589 50.7543 422.874 51.1165 423.108C51.4787 423.335 51.88 423.527 52.3203 423.683C52.7607 423.839 53.2045 423.971 53.652 424.077L55.6974 424.589C56.5213 424.781 57.3132 425.04 58.0732 425.366C58.8402 425.693 59.5256 426.105 60.1293 426.602C60.7401 427.099 61.223 427.7 61.5781 428.403C61.9332 429.106 62.1108 429.93 62.1108 430.874C62.1108 432.153 61.7841 433.278 61.1307 434.251C60.4773 435.217 59.5327 435.974 58.2969 436.521C57.0682 437.06 55.5803 437.33 53.8331 437.33C52.1357 437.33 50.6619 437.067 49.4119 436.542C48.169 436.016 47.196 435.249 46.4929 434.241C45.7969 433.232 45.4205 432.004 45.3636 430.555H49.2521C49.3089 431.315 49.5433 431.947 49.9553 432.451C50.3672 432.955 50.9034 433.332 51.5639 433.58C52.2315 433.829 52.9773 433.953 53.8011 433.953C54.6605 433.953 55.4134 433.825 56.0597 433.57C56.7131 433.307 57.2244 432.945 57.5937 432.483C57.9631 432.014 58.1513 431.467 58.1584 430.842C58.1513 430.274 57.9844 429.805 57.6577 429.436C57.331 429.06 56.8729 428.747 56.2834 428.499C55.701 428.243 55.0192 428.016 54.2379 427.817L51.7557 427.178C49.9588 426.716 48.5384 426.016 47.4943 425.079C46.4574 424.134 45.9389 422.881 45.9389 421.318C45.9389 420.033 46.2869 418.907 46.983 417.941C47.6861 416.975 48.6413 416.226 49.8487 415.693C51.0561 415.153 52.4233 414.884 53.9503 414.884C55.4986 414.884 56.8551 415.153 58.0199 415.693C59.1918 416.226 60.1115 416.968 60.7791 417.92C61.4467 418.864 61.7912 419.951 61.8125 421.18H58.0092ZM65.4213 437V434.145L72.9959 426.719C73.7203 425.988 74.324 425.338 74.807 424.77C75.2899 424.202 75.6522 423.651 75.8936 423.119C76.1351 422.586 76.2559 422.018 76.2559 421.414C76.2559 420.725 76.0996 420.136 75.7871 419.646C75.4746 419.148 75.0449 418.765 74.498 418.495C73.9512 418.225 73.3297 418.09 72.6337 418.09C71.9164 418.09 71.2878 418.239 70.748 418.538C70.2083 418.829 69.7892 419.244 69.4909 419.784C69.1998 420.324 69.0542 420.967 69.0542 421.712H65.2935C65.2935 420.327 65.6096 419.124 66.2417 418.101C66.8738 417.078 67.7438 416.286 68.8517 415.725C69.9668 415.164 71.2452 414.884 72.687 414.884C74.15 414.884 75.4355 415.157 76.5435 415.704C77.6515 416.251 78.5108 417 79.1216 417.952C79.7395 418.903 80.0485 419.99 80.0485 421.212C80.0485 422.028 79.8922 422.831 79.5797 423.619C79.2672 424.408 78.7168 425.281 77.9284 426.24C77.1472 427.199 76.0499 428.36 74.6365 429.724L70.8759 433.548V433.697H80.3787V437H65.4213ZM84.8532 437L94.1323 418.634V418.484H83.3617V415.182H98.2232V418.559L88.9547 437H84.8532ZM102.482 434.017L102.343 435.189C102.244 436.084 102.066 436.993 101.811 437.916C101.562 438.847 101.299 439.702 101.022 440.484C100.745 441.265 100.522 441.879 100.351 442.327H97.7518C97.8512 441.893 97.9861 441.304 98.1566 440.558C98.3342 439.812 98.5046 438.974 98.668 438.044C98.8313 437.114 98.9414 436.169 98.9982 435.21L99.0728 434.017H102.482ZM113.974 437.415C112.22 437.415 110.714 436.972 109.457 436.084C108.207 435.189 107.245 433.9 106.57 432.217C105.903 430.526 105.569 428.491 105.569 426.112C105.576 423.733 105.913 421.709 106.581 420.04C107.256 418.364 108.218 417.085 109.468 416.205C110.725 415.324 112.227 414.884 113.974 414.884C115.721 414.884 117.224 415.324 118.481 416.205C119.738 417.085 120.7 418.364 121.368 420.04C122.042 421.716 122.38 423.74 122.38 426.112C122.38 428.499 122.042 430.537 121.368 432.227C120.7 433.911 119.738 435.196 118.481 436.084C117.231 436.972 115.729 437.415 113.974 437.415ZM113.974 434.081C115.338 434.081 116.414 433.41 117.202 432.067C117.998 430.718 118.395 428.733 118.395 426.112C118.395 424.379 118.214 422.923 117.852 421.744C117.49 420.565 116.979 419.678 116.318 419.081C115.657 418.477 114.876 418.175 113.974 418.175C112.618 418.175 111.545 418.85 110.757 420.2C109.969 421.542 109.571 423.513 109.564 426.112C109.557 427.852 109.731 429.315 110.086 430.501C110.448 431.687 110.959 432.582 111.62 433.186C112.28 433.783 113.065 434.081 113.974 434.081ZM133.984 437.415C132.23 437.415 130.724 436.972 129.467 436.084C128.217 435.189 127.255 433.9 126.58 432.217C125.912 430.526 125.578 428.491 125.578 426.112C125.586 423.733 125.923 421.709 126.591 420.04C127.265 418.364 128.228 417.085 129.478 416.205C130.735 415.324 132.237 414.884 133.984 414.884C135.731 414.884 137.233 415.324 138.49 416.205C139.748 417.085 140.71 418.364 141.377 420.04C142.052 421.716 142.39 423.74 142.39 426.112C142.39 428.499 142.052 430.537 141.377 432.227C140.71 433.911 139.748 435.196 138.49 436.084C137.24 436.972 135.738 437.415 133.984 437.415ZM133.984 434.081C135.348 434.081 136.424 433.41 137.212 432.067C138.007 430.718 138.405 428.733 138.405 426.112C138.405 424.379 138.224 422.923 137.862 421.744C137.5 420.565 136.988 419.678 136.328 419.081C135.667 418.477 134.886 418.175 133.984 418.175C132.627 418.175 131.555 418.85 130.767 420.2C129.978 421.542 129.581 423.513 129.574 426.112C129.566 427.852 129.74 429.315 130.096 430.501C130.458 431.687 130.969 432.582 131.63 433.186C132.29 433.783 133.075 434.081 133.984 434.081ZM153.994 437.415C152.24 437.415 150.734 436.972 149.477 436.084C148.227 435.189 147.264 433.9 146.59 432.217C145.922 430.526 145.588 428.491 145.588 426.112C145.595 423.733 145.933 421.709 146.6 420.04C147.275 418.364 148.237 417.085 149.487 416.205C150.744 415.324 152.247 414.884 153.994 414.884C155.741 414.884 157.243 415.324 158.5 416.205C159.757 417.085 160.72 418.364 161.387 420.04C162.062 421.716 162.399 423.74 162.399 426.112C162.399 428.499 162.062 430.537 161.387 432.227C160.72 433.911 159.757 435.196 158.5 436.084C157.25 436.972 155.748 437.415 153.994 437.415ZM153.994 434.081C155.357 434.081 156.433 433.41 157.222 432.067C158.017 430.718 158.415 428.733 158.415 426.112C158.415 424.379 158.234 422.923 157.872 421.744C157.509 420.565 156.998 419.678 156.338 419.081C155.677 418.477 154.896 418.175 153.994 418.175C152.637 418.175 151.565 418.85 150.776 420.2C149.988 421.542 149.59 423.513 149.583 426.112C149.576 427.852 149.75 429.315 150.105 430.501C150.468 431.687 150.979 432.582 151.639 433.186C152.3 433.783 153.085 434.081 153.994 434.081ZM167.508 437.234C166.861 437.234 166.307 437.007 165.846 436.553C165.384 436.098 165.157 435.544 165.164 434.891C165.157 434.251 165.384 433.705 165.846 433.25C166.307 432.795 166.861 432.568 167.508 432.568C168.133 432.568 168.676 432.795 169.138 433.25C169.606 433.705 169.844 434.251 169.851 434.891C169.844 435.324 169.731 435.718 169.51 436.073C169.297 436.428 169.013 436.712 168.658 436.925C168.31 437.131 167.927 437.234 167.508 437.234ZM181.005 437.415C179.251 437.415 177.746 436.972 176.488 436.084C175.238 435.189 174.276 433.9 173.601 432.217C172.934 430.526 172.6 428.491 172.6 426.112C172.607 423.733 172.944 421.709 173.612 420.04C174.287 418.364 175.249 417.085 176.499 416.205C177.756 415.324 179.258 414.884 181.005 414.884C182.753 414.884 184.255 415.324 185.512 416.205C186.769 417.085 187.731 418.364 188.399 420.04C189.074 421.716 189.411 423.74 189.411 426.112C189.411 428.499 189.074 430.537 188.399 432.227C187.731 433.911 186.769 435.196 185.512 436.084C184.262 436.972 182.76 437.415 181.005 437.415ZM181.005 434.081C182.369 434.081 183.445 433.41 184.233 432.067C185.029 430.718 185.427 428.733 185.427 426.112C185.427 424.379 185.246 422.923 184.883 421.744C184.521 420.565 184.01 419.678 183.349 419.081C182.689 418.477 181.907 418.175 181.005 418.175C179.649 418.175 178.577 418.85 177.788 420.2C177 421.542 176.602 423.513 176.595 426.112C176.588 427.852 176.762 429.315 177.117 430.501C177.479 431.687 177.991 432.582 178.651 433.186C179.312 433.783 180.096 434.081 181.005 434.081ZM201.015 437.415C199.261 437.415 197.755 436.972 196.498 436.084C195.248 435.189 194.286 433.9 193.611 432.217C192.944 430.526 192.61 428.491 192.61 426.112C192.617 423.733 192.954 421.709 193.622 420.04C194.297 418.364 195.259 417.085 196.509 416.205C197.766 415.324 199.268 414.884 201.015 414.884C202.762 414.884 204.265 415.324 205.522 416.205C206.779 417.085 207.741 418.364 208.409 420.04C209.083 421.716 209.421 423.74 209.421 426.112C209.421 428.499 209.083 430.537 208.409 432.227C207.741 433.911 206.779 435.196 205.522 436.084C204.272 436.972 202.77 437.415 201.015 437.415ZM201.015 434.081C202.379 434.081 203.455 433.41 204.243 432.067C205.039 430.718 205.436 428.733 205.436 426.112C205.436 424.379 205.255 422.923 204.893 421.744C204.531 420.565 204.02 419.678 203.359 419.081C202.698 418.477 201.917 418.175 201.015 418.175C199.659 418.175 198.586 418.85 197.798 420.2C197.01 421.542 196.612 423.513 196.605 426.112C196.598 427.852 196.772 429.315 197.127 430.501C197.489 431.687 198 432.582 198.661 433.186C199.321 433.783 200.106 434.081 201.015 434.081Z" fill="white"/>
<path d="M78.683 304.568H72.1588L76.2363 279.508H82.7612L78.683 304.568ZM66.6702 279.508L60.4503 296.744L59.7143 293.033L59.715 293.034L57.5197 281.765C57.5197 281.765 57.2542 279.508 54.4248 279.508H44.1421L44.0215 279.933C44.0215 279.933 47.166 280.587 50.846 282.797L56.5142 304.568H63.3119L73.6918 279.508H66.6702V279.508ZM117.986 304.568H123.977L118.754 279.508H113.509C111.088 279.508 110.498 281.375 110.498 281.375L100.767 304.568H107.568L108.928 300.845H117.222L117.986 304.568ZM110.807 295.703L114.235 286.325L116.164 295.703H110.807ZM101.277 285.534L102.209 280.153C102.209 280.153 99.3355 279.061 96.3405 279.061C93.1029 279.061 85.4143 280.476 85.4143 287.356C85.4143 293.83 94.4382 293.911 94.4382 297.311C94.4382 300.712 86.3441 300.103 83.6729 297.958L82.7029 303.585C82.7029 303.585 85.6161 305 90.067 305C94.5193 305 101.236 302.695 101.236 296.42C101.236 289.905 92.1309 289.298 92.1309 286.466C92.1316 283.632 98.4856 283.996 101.277 285.534V285.534Z" fill="white"/>
<path d="M59.715 293.034L57.5197 281.765C57.5197 281.765 57.2542 279.508 54.4248 279.508H44.1421L44.0215 279.933C44.0215 279.933 48.9637 280.957 53.7042 284.795C58.2369 288.463 59.715 293.034 59.715 293.034Z" fill="#139A4C"/>
<rect x="136.35" width="438" height="254" rx="43" transform="rotate(25.5 136.35 0)" fill="white"/>
<path d="M449.998 149.603C453.053 157.522 455.96 179.147 443.15 202.287C436.114 214.996 424.484 240.027 457.388 258.38C466.139 263.262 481.678 272.958 486.694 282.884" stroke="#E2E2E2"/>
<path d="M427.885 139.055C430.939 146.975 437.555 178.013 415.648 214.651C408.193 227.119 403.432 250.483 436.336 268.836C446.4 274.449 471.11 293.953 476.125 303.879" stroke="#E2E2E2"/>
<path d="M59.2885 161.562L45.5122 190.445C35.2883 211.88 44.3766 237.544 65.8114 247.768L138.921 282.64C166.547 190.342 97.3436 163.464 59.2885 161.562Z" fill="#E2E2E2"/>
<path d="M112.781 153.412L113.319 152.283L121.196 156.041L120.658 157.169L117.356 155.594L112.884 164.968L111.612 164.362L116.084 154.987L112.781 153.412ZM119.965 168.547C119.254 168.208 118.711 167.741 118.335 167.146C117.963 166.554 117.772 165.881 117.762 165.129C117.754 164.379 117.945 163.597 118.333 162.783C118.724 161.962 119.215 161.317 119.804 160.847C120.397 160.378 121.041 160.102 121.735 160.018C122.434 159.936 123.138 160.064 123.849 160.403C124.561 160.742 125.102 161.208 125.474 161.801C125.849 162.396 126.04 163.07 126.045 163.824C126.054 164.579 125.863 165.367 125.472 166.188C125.084 167.002 124.594 167.641 124.003 168.106C123.415 168.573 122.772 168.847 122.074 168.93C121.379 169.014 120.676 168.886 119.965 168.547ZM120.484 167.46C121.024 167.717 121.534 167.791 122.015 167.68C122.496 167.57 122.928 167.329 123.311 166.957C123.693 166.586 124.01 166.137 124.261 165.611C124.513 165.084 124.663 164.553 124.712 164.019C124.761 163.484 124.679 162.994 124.464 162.547C124.249 162.1 123.871 161.748 123.331 161.49C122.791 161.233 122.279 161.161 121.797 161.275C121.314 161.389 120.881 161.633 120.497 162.008C120.112 162.383 119.794 162.834 119.543 163.36C119.292 163.887 119.143 164.416 119.095 164.947C119.047 165.478 119.132 165.965 119.348 166.408C119.565 166.852 119.943 167.202 120.484 167.46ZM132.643 164.723L132.154 165.749L128.072 163.802L128.561 162.776L132.643 164.723ZM130.651 161.457L131.861 162.034L128.28 169.542C128.117 169.884 128.044 170.164 128.062 170.382C128.085 170.598 128.161 170.773 128.29 170.906C128.425 171.038 128.581 171.146 128.759 171.231C128.892 171.294 129.005 171.339 129.097 171.367C129.19 171.39 129.265 171.409 129.321 171.423L129.049 172.628C128.952 172.62 128.823 172.596 128.661 172.556C128.498 172.521 128.304 172.449 128.078 172.341C127.736 172.178 127.436 171.945 127.178 171.641C126.923 171.339 126.76 170.986 126.688 170.583C126.62 170.181 126.695 169.751 126.913 169.293L130.651 161.457ZM132.936 174.759C132.437 174.521 132.029 174.211 131.712 173.829C131.396 173.443 131.205 173.014 131.136 172.541C131.07 172.064 131.159 171.57 131.404 171.057C131.619 170.606 131.882 170.282 132.194 170.087C132.507 169.888 132.851 169.779 133.225 169.76C133.599 169.741 133.984 169.778 134.38 169.871C134.782 169.961 135.177 170.07 135.566 170.197C136.074 170.363 136.484 170.502 136.796 170.614C137.113 170.723 137.359 170.771 137.533 170.757C137.711 170.746 137.846 170.642 137.939 170.447L137.959 170.406C138.2 169.9 138.249 169.441 138.106 169.029C137.966 168.618 137.617 168.28 137.06 168.014C136.482 167.738 135.969 167.649 135.52 167.745C135.071 167.842 134.712 168.002 134.441 168.225L133.488 167.267C133.922 166.886 134.373 166.644 134.842 166.54C135.316 166.435 135.782 166.426 136.239 166.514C136.702 166.601 137.131 166.738 137.528 166.928C137.781 167.048 138.057 167.218 138.356 167.436C138.66 167.652 138.921 167.926 139.141 168.257C139.364 168.59 139.489 168.992 139.517 169.462C139.544 169.933 139.409 170.481 139.11 171.107L136.635 176.297L135.424 175.719L135.933 174.653L135.872 174.623C135.708 174.755 135.484 174.873 135.2 174.976C134.915 175.08 134.582 175.124 134.198 175.109C133.815 175.094 133.394 174.978 132.936 174.759ZM133.64 173.76C134.118 173.988 134.566 174.087 134.984 174.055C135.406 174.025 135.771 173.902 136.08 173.684C136.393 173.468 136.628 173.196 136.784 172.868L137.313 171.76C137.232 171.797 137.092 171.8 136.894 171.768C136.7 171.734 136.481 171.683 136.238 171.612C135.999 171.541 135.767 171.468 135.542 171.394C135.322 171.319 135.143 171.258 135.005 171.214C134.671 171.105 134.345 171.031 134.028 170.993C133.715 170.953 133.432 170.984 133.178 171.085C132.929 171.184 132.731 171.388 132.585 171.696C132.384 172.116 132.388 172.508 132.596 172.872C132.81 173.234 133.157 173.53 133.64 173.76ZM145.064 167.425L140.054 177.928L138.844 177.35L143.853 166.847L145.064 167.425ZM146.497 181L151.506 170.498L152.716 171.075L150.867 174.952L150.97 175.001C151.124 174.906 151.33 174.791 151.588 174.654C151.852 174.515 152.172 174.433 152.55 174.407C152.932 174.38 153.38 174.488 153.892 174.733C154.556 175.049 155.061 175.494 155.409 176.067C155.757 176.64 155.928 177.298 155.921 178.042C155.915 178.786 155.714 179.572 155.319 180.399C154.921 181.233 154.435 181.889 153.859 182.366C153.285 182.839 152.667 183.123 152.004 183.218C151.344 183.31 150.685 183.2 150.029 182.887C149.523 182.645 149.157 182.368 148.933 182.056C148.71 181.739 148.568 181.435 148.507 181.141C148.447 180.844 148.407 180.602 148.387 180.416L148.243 180.348L147.666 181.558L146.497 181ZM149.565 177.629C149.281 178.224 149.118 178.791 149.075 179.328C149.035 179.863 149.121 180.338 149.333 180.755C149.548 181.167 149.898 181.49 150.383 181.721C150.889 181.962 151.375 182.03 151.841 181.925C152.311 181.818 152.741 181.578 153.128 181.205C153.521 180.83 153.851 180.362 154.119 179.801C154.383 179.248 154.536 178.708 154.577 178.182C154.623 177.654 154.537 177.179 154.319 176.756C154.106 176.331 153.743 175.996 153.23 175.752C152.738 175.517 152.265 175.444 151.811 175.534C151.358 175.62 150.941 175.845 150.558 176.208C150.176 176.568 149.845 177.041 149.565 177.629ZM157.532 186.491C157.033 186.252 156.624 185.942 156.307 185.56C155.992 185.175 155.8 184.745 155.732 184.272C155.665 183.796 155.755 183.301 155.999 182.788C156.214 182.337 156.478 182.014 156.789 181.818C157.102 181.619 157.446 181.51 157.82 181.491C158.194 181.473 158.579 181.509 158.976 181.602C159.377 181.693 159.773 181.802 160.161 181.928C160.669 182.095 161.079 182.234 161.391 182.345C161.709 182.454 161.954 182.502 162.129 182.489C162.306 182.477 162.442 182.374 162.534 182.179L162.554 182.138C162.795 181.632 162.844 181.173 162.701 180.76C162.561 180.349 162.213 180.011 161.656 179.745C161.078 179.47 160.565 179.38 160.116 179.477C159.667 179.573 159.307 179.733 159.037 179.957L158.084 178.998C158.517 178.618 158.968 178.375 159.438 178.272C159.912 178.166 160.377 178.158 160.835 178.246C161.297 178.332 161.727 178.47 162.123 178.659C162.376 178.78 162.652 178.949 162.951 179.167C163.255 179.383 163.517 179.657 163.737 179.989C163.96 180.322 164.085 180.723 164.112 181.194C164.14 181.664 164.004 182.212 163.706 182.838L161.23 188.028L160.02 187.451L160.529 186.384L160.467 186.355C160.304 186.486 160.08 186.604 159.795 186.708C159.511 186.811 159.177 186.856 158.794 186.841C158.411 186.826 157.99 186.709 157.532 186.491ZM158.235 185.491C158.714 185.72 159.162 185.818 159.58 185.787C160.001 185.757 160.366 185.633 160.676 185.416C160.989 185.2 161.223 184.928 161.38 184.599L161.908 183.492C161.828 183.529 161.688 183.531 161.489 183.499C161.295 183.466 161.077 183.414 160.833 183.344C160.595 183.272 160.363 183.199 160.138 183.126C159.918 183.05 159.739 182.99 159.601 182.945C159.267 182.836 158.941 182.762 158.623 182.724C158.311 182.684 158.028 182.715 157.774 182.816C157.525 182.916 157.327 183.119 157.18 183.427C156.979 183.848 156.983 184.24 157.192 184.604C157.405 184.966 157.753 185.262 158.235 185.491ZM169.659 179.156L164.65 189.659L163.439 189.082L168.449 178.579L169.659 179.156ZM169.096 192.007C168.597 191.768 168.189 191.458 167.872 191.076C167.556 190.691 167.364 190.261 167.296 189.788C167.23 189.312 167.319 188.817 167.563 188.304C167.779 187.853 168.042 187.529 168.354 187.334C168.667 187.135 169.01 187.026 169.384 187.007C169.759 186.988 170.144 187.025 170.54 187.118C170.942 187.209 171.337 187.317 171.726 187.444C172.234 187.611 172.644 187.75 172.956 187.861C173.273 187.97 173.519 188.018 173.693 188.005C173.871 187.993 174.006 187.89 174.099 187.695L174.118 187.654C174.36 187.148 174.409 186.689 174.266 186.276C174.126 185.865 173.777 185.527 173.22 185.261C172.642 184.986 172.129 184.896 171.68 184.992C171.231 185.089 170.872 185.249 170.601 185.472L169.648 184.514C170.082 184.133 170.533 183.891 171.002 183.788C171.476 183.682 171.942 183.674 172.399 183.762C172.862 183.848 173.291 183.986 173.688 184.175C173.941 184.296 174.217 184.465 174.516 184.683C174.819 184.899 175.081 185.173 175.301 185.505C175.524 185.838 175.649 186.239 175.677 186.71C175.704 187.18 175.568 187.728 175.27 188.354L172.795 193.544L171.584 192.967L172.093 191.9L172.032 191.871C171.868 192.002 171.644 192.12 171.36 192.224C171.075 192.327 170.741 192.372 170.358 192.357C169.975 192.342 169.554 192.225 169.096 192.007ZM169.799 191.007C170.278 191.236 170.726 191.334 171.144 191.303C171.566 191.273 171.931 191.149 172.24 190.931C172.553 190.716 172.788 190.444 172.944 190.115L173.473 189.008C173.392 189.045 173.252 189.047 173.053 189.015C172.86 188.982 172.641 188.93 172.397 188.86C172.159 188.788 171.927 188.715 171.702 188.642C171.482 188.566 171.303 188.506 171.165 188.461C170.831 188.352 170.505 188.278 170.188 188.24C169.875 188.2 169.592 188.231 169.338 188.332C169.089 188.432 168.891 188.635 168.744 188.943C168.544 189.364 168.548 189.756 168.756 190.119C168.97 190.481 169.317 190.777 169.799 191.007ZM178.474 190.436L176.214 195.175L175.004 194.598L178.761 186.72L179.93 187.278L179.343 188.509L179.446 188.558C179.821 188.246 180.255 188.058 180.746 187.995C181.24 187.928 181.784 188.037 182.379 188.32C182.912 188.575 183.327 188.907 183.623 189.316C183.92 189.723 184.074 190.199 184.086 190.746C184.1 191.29 183.947 191.897 183.627 192.567L181.24 197.572L180.029 196.995L182.378 192.072C182.673 191.453 182.742 190.894 182.585 190.395C182.43 189.893 182.072 189.509 181.512 189.241C181.125 189.057 180.74 188.976 180.356 188.998C179.975 189.022 179.621 189.154 179.293 189.392C178.966 189.63 178.693 189.978 178.474 190.436ZM186.573 200.317C185.835 199.965 185.282 199.487 184.915 198.884C184.548 198.281 184.367 197.605 184.371 196.856C184.376 196.107 184.566 195.34 184.941 194.553C185.323 193.753 185.806 193.117 186.392 192.646C186.983 192.172 187.626 191.889 188.321 191.797C189.02 191.702 189.726 191.825 190.437 192.164C190.991 192.428 191.441 192.769 191.788 193.186C192.134 193.603 192.361 194.064 192.469 194.568C192.577 195.073 192.547 195.588 192.381 196.113L191.171 195.535C191.249 195.132 191.196 194.717 191.01 194.288C190.829 193.858 190.472 193.515 189.939 193.261C189.467 193.036 188.995 192.962 188.522 193.038C188.054 193.113 187.615 193.325 187.204 193.675C186.799 194.023 186.455 194.495 186.171 195.09C185.881 195.698 185.724 196.274 185.7 196.816C185.679 197.361 185.786 197.841 186.019 198.259C186.255 198.678 186.613 199.002 187.092 199.23C187.406 199.38 187.718 199.462 188.026 199.475C188.335 199.487 188.627 199.434 188.903 199.313C189.178 199.193 189.422 199.007 189.634 198.756L190.845 199.333C190.555 199.766 190.186 200.104 189.738 200.347C189.295 200.59 188.801 200.715 188.255 200.723C187.715 200.73 187.154 200.595 186.573 200.317ZM194.742 204.214C193.983 203.852 193.409 203.372 193.018 202.775C192.632 202.175 192.435 201.502 192.426 200.755C192.423 200.006 192.613 199.228 192.998 198.421C193.383 197.615 193.869 196.974 194.457 196.498C195.049 196.021 195.693 195.737 196.388 195.644C197.087 195.55 197.793 195.672 198.504 196.011C198.914 196.207 199.287 196.469 199.621 196.796C199.956 197.124 200.214 197.52 200.396 197.984C200.579 198.445 200.648 198.973 200.603 199.569C200.558 200.164 200.36 200.829 200.01 201.564L199.765 202.077L193.693 199.181L194.192 198.135L199.033 200.444C199.245 200 199.346 199.561 199.334 199.127C199.326 198.695 199.208 198.301 198.979 197.944C198.754 197.589 198.423 197.307 197.985 197.099C197.503 196.869 197.029 196.789 196.563 196.861C196.101 196.93 195.686 197.11 195.317 197.4C194.948 197.69 194.66 198.052 194.453 198.486L194.12 199.183C193.837 199.778 193.699 200.331 193.706 200.843C193.719 201.353 193.859 201.803 194.125 202.195C194.394 202.583 194.772 202.894 195.261 203.127C195.579 203.278 195.887 203.371 196.186 203.404C196.49 203.436 196.779 203.406 197.054 203.315C197.33 203.22 197.584 203.06 197.817 202.835L198.83 203.721C198.518 204.059 198.145 204.309 197.711 204.471C197.278 204.63 196.808 204.691 196.301 204.655C195.795 204.615 195.276 204.468 194.742 204.214Z" fill="#24262D"/>
<path d="M93.4395 213.004L105.181 188.388L106.758 189.14L95.0164 213.756L93.4395 213.004ZM105.973 198.432C106.283 197.55 106.217 196.715 105.774 195.929C105.337 195.146 104.589 194.503 103.531 193.998C102.788 193.644 102.096 193.452 101.457 193.422C100.818 193.393 100.266 193.503 99.8005 193.753C99.335 194.003 98.9813 194.374 98.7394 194.864C98.5438 195.274 98.467 195.674 98.5092 196.064C98.5578 196.457 98.6951 196.838 98.9212 197.205C99.1502 197.566 99.4299 197.912 99.7601 198.243C100.09 198.573 100.434 198.883 100.792 199.172L102.418 200.514C103.079 201.042 103.683 201.617 104.228 202.239C104.78 202.864 105.221 203.531 105.552 204.239C105.889 204.951 106.066 205.7 106.084 206.488C106.102 207.276 105.908 208.096 105.501 208.948C104.951 210.102 104.171 210.977 103.162 211.574C102.157 212.165 100.979 212.441 99.6278 212.402C98.2864 212.361 96.8272 211.964 95.2503 211.212C93.7182 210.481 92.5012 209.609 91.5992 208.597C90.7036 207.587 90.1556 206.476 89.9552 205.263C89.7611 204.053 89.9504 202.782 90.5228 201.45L94.0325 203.124C93.7566 203.834 93.6961 204.506 93.8508 205.138C94.0055 205.771 94.3274 206.341 94.8166 206.85C95.3121 207.362 95.9317 207.795 96.6753 208.15C97.451 208.52 98.1855 208.728 98.8789 208.776C99.5818 208.82 100.199 208.713 100.731 208.455C101.267 208.191 101.672 207.779 101.947 207.218C102.186 206.702 102.237 206.207 102.101 205.733C101.968 205.253 101.689 204.773 101.264 204.295C100.848 203.814 100.331 203.315 99.7113 202.799L97.7461 201.154C96.323 199.963 95.3421 198.72 94.8034 197.425C94.2741 196.126 94.3458 194.771 95.0185 193.361C95.5719 192.2 96.3707 191.334 97.4147 190.762C98.4652 190.193 99.65 189.928 100.969 189.967C102.291 190 103.641 190.345 105.02 191.002C106.417 191.668 107.525 192.496 108.344 193.485C109.173 194.47 109.683 195.536 109.876 196.682C110.072 197.822 109.915 198.951 109.405 200.07L105.973 198.432ZM123.255 200.03L113.862 219.723L110.294 218.021L118.032 201.8L117.916 201.745L111.907 202.49L113.466 199.221L119.86 198.411L123.255 200.03ZM120.249 218.284L121.602 215.448L136.255 206.231L138.62 207.359L136.694 211.398L135.252 210.71L125.375 216.94L125.302 217.094L136.965 222.658L135.566 225.59L120.249 218.284ZM127.9 226.419L130.056 221.9L130.7 220.649L137.332 206.745L140.697 208.35L131.304 228.043L127.9 226.419ZM141.75 229.72L141.12 230.718C140.645 231.483 140.094 232.227 139.465 232.95C138.841 233.683 138.235 234.342 137.649 234.928C137.062 235.514 136.596 235.972 136.249 236.303L133.903 235.184C134.179 234.835 134.555 234.362 135.03 233.762C135.511 233.165 136.026 232.482 136.574 231.713C137.122 230.943 137.628 230.138 138.092 229.297L138.673 228.252L141.75 229.72ZM144.326 234.254L145.555 231.677L155.589 228.236C156.558 227.887 157.382 227.561 158.063 227.256C158.743 226.951 159.307 226.61 159.755 226.233C160.202 225.856 160.555 225.395 160.815 224.85C161.112 224.229 161.225 223.629 161.154 223.052C161.086 222.469 160.863 221.938 160.485 221.459C160.108 220.98 159.605 220.591 158.977 220.291C158.329 219.982 157.698 219.846 157.082 219.883C156.47 219.914 155.913 220.108 155.411 220.467C154.916 220.829 154.508 221.346 154.187 222.019L150.792 220.4C151.389 219.15 152.192 218.2 153.203 217.549C154.214 216.898 155.34 216.558 156.582 216.528C157.83 216.502 159.104 216.799 160.406 217.42C161.726 218.05 162.769 218.85 163.533 219.82C164.298 220.791 164.751 221.837 164.892 222.959C165.04 224.084 164.852 225.198 164.326 226.301C163.974 227.038 163.487 227.695 162.866 228.272C162.245 228.849 161.372 229.4 160.247 229.926C159.129 230.455 157.639 231.031 155.776 231.654L150.735 233.487L150.671 233.621L159.248 237.712L157.827 240.693L144.326 234.254ZM168.083 245.916C166.698 245.255 165.581 244.431 164.73 243.443C163.886 242.458 163.355 241.394 163.136 240.251C162.918 239.108 163.054 237.973 163.545 236.846L167.16 238.571C166.939 239.118 166.893 239.667 167.024 240.217C167.158 240.761 167.439 241.269 167.867 241.741C168.295 242.212 168.84 242.606 169.5 242.921C170.205 243.257 170.888 243.433 171.549 243.45C172.213 243.459 172.805 243.317 173.323 243.021C173.842 242.725 174.236 242.288 174.505 241.708C174.795 241.115 174.892 240.516 174.795 239.911C174.698 239.306 174.413 238.733 173.939 238.192C173.471 237.654 172.821 237.187 171.988 236.789L170.247 235.959L171.559 233.209L173.299 234.039C173.985 234.366 174.641 234.534 175.267 234.541C175.9 234.551 176.466 234.412 176.965 234.123C177.468 233.828 177.852 233.394 178.118 232.82C178.39 232.266 178.496 231.722 178.436 231.189C178.384 230.653 178.183 230.16 177.832 229.709C177.486 229.261 177.006 228.891 176.391 228.597C175.788 228.31 175.179 228.153 174.562 228.126C173.945 228.099 173.383 228.213 172.876 228.467C172.373 228.715 171.98 229.109 171.698 229.652L168.265 228.014C168.816 226.924 169.595 226.107 170.602 225.564C171.618 225.018 172.75 224.756 173.999 224.777C175.251 224.792 176.515 225.103 177.791 225.712C179.105 226.339 180.128 227.13 180.861 228.085C181.603 229.037 182.042 230.053 182.18 231.134C182.318 232.215 182.148 233.255 181.671 234.255C181.148 235.367 180.378 236.141 179.36 236.576C178.349 237.014 177.256 237.095 176.081 236.818L176.008 236.972C177.301 237.825 178.117 238.843 178.457 240.028C178.806 241.21 178.684 242.415 178.091 243.642C177.565 244.745 176.78 245.582 175.736 246.155C174.701 246.723 173.518 246.993 172.186 246.964C170.861 246.938 169.493 246.588 168.083 245.916ZM185.882 254.535C184.298 253.78 183.13 252.731 182.378 251.388C181.635 250.042 181.321 248.465 181.437 246.655C181.562 244.842 182.137 242.862 183.161 240.714C184.192 238.57 185.368 236.888 186.689 235.669C188.019 234.446 189.438 233.707 190.946 233.45C192.46 233.196 194.005 233.446 195.582 234.198C197.159 234.95 198.325 235.994 199.081 237.33C199.836 238.666 200.154 240.235 200.035 242.035C199.923 243.838 199.356 245.81 198.334 247.951C197.307 250.105 196.125 251.8 194.788 253.035C193.461 254.267 192.039 255.013 190.522 255.273C189.012 255.536 187.465 255.29 185.882 254.535ZM187.317 251.525C188.548 252.112 189.808 251.97 191.097 251.098C192.396 250.222 193.61 248.602 194.738 246.236C195.484 244.672 195.948 243.28 196.128 242.06C196.309 240.84 196.23 239.818 195.89 238.995C195.554 238.166 194.979 237.557 194.165 237.169C192.94 236.585 191.682 236.732 190.389 237.611C189.1 238.483 187.892 240.091 186.767 242.434C186.011 244.001 185.539 245.397 185.348 246.62C185.165 247.847 185.241 248.875 185.577 249.704C185.917 250.527 186.497 251.134 187.317 251.525ZM198.157 260.189C197.574 259.911 197.171 259.467 196.95 258.858C196.729 258.249 196.763 257.652 197.051 257.065C197.319 256.485 197.76 256.089 198.372 255.878C198.985 255.666 199.582 255.699 200.166 255.978C200.73 256.247 201.122 256.686 201.343 257.295C201.571 257.907 201.55 258.503 201.281 259.083C201.088 259.471 200.816 259.778 200.465 260.003C200.119 260.232 199.741 260.366 199.328 260.406C198.926 260.442 198.535 260.37 198.157 260.189ZM210.409 266.104C209.126 265.492 208.094 264.705 207.31 263.741C206.53 262.77 206.043 261.72 205.851 260.589C205.664 259.462 205.812 258.344 206.293 257.236L209.755 258.887C209.434 259.726 209.468 260.552 209.858 261.368C210.251 262.177 210.893 262.794 211.784 263.219C212.483 263.552 213.181 263.689 213.879 263.628C214.577 263.568 215.219 263.327 215.805 262.906C216.391 262.485 216.856 261.908 217.198 261.174C217.559 260.434 217.717 259.699 217.671 258.969C217.626 258.239 217.403 257.578 217.001 256.985C216.602 256.385 216.041 255.913 215.316 255.567C214.729 255.28 214.097 255.112 213.42 255.064C212.742 255.016 212.15 255.096 211.642 255.302L208.673 253.237L214.545 243.573L225.969 249.022L224.547 252.003L216.075 247.962L213.018 252.913L213.133 252.968C213.703 252.713 214.389 252.603 215.19 252.639C215.995 252.669 216.794 252.873 217.589 253.252C218.781 253.821 219.711 254.61 220.378 255.621C221.048 256.625 221.418 257.746 221.489 258.984C221.559 260.221 221.293 261.471 220.691 262.734C220.07 264.036 219.216 265.052 218.127 265.784C217.048 266.513 215.837 266.915 214.495 266.99C213.162 267.063 211.8 266.767 210.409 266.104ZM227.926 274.589C226.342 273.834 225.175 272.785 224.422 271.442C223.679 270.097 223.365 268.519 223.481 266.709C223.606 264.896 224.181 262.916 225.205 260.768C226.236 258.624 227.412 256.942 228.733 255.723C230.064 254.501 231.483 253.761 232.99 253.504C234.504 253.251 236.049 253.5 237.626 254.252C239.203 255.004 240.369 256.048 241.125 257.384C241.88 258.72 242.199 260.289 242.079 262.089C241.967 263.892 241.4 265.864 240.379 268.005C239.351 270.159 238.169 271.854 236.833 273.089C235.505 274.321 234.083 275.067 232.567 275.327C231.056 275.59 229.509 275.344 227.926 274.589ZM229.361 271.579C230.592 272.166 231.852 272.024 233.142 271.152C234.441 270.276 235.654 268.656 236.782 266.29C237.529 264.726 237.992 263.334 238.173 262.114C238.353 260.894 238.274 259.872 237.934 259.05C237.598 258.22 237.023 257.612 236.209 257.223C234.984 256.639 233.726 256.786 232.434 257.665C231.144 258.537 229.937 260.145 228.811 262.488C228.056 264.056 227.583 265.451 227.393 266.674C227.209 267.901 227.285 268.929 227.622 269.758C227.961 270.581 228.541 271.188 229.361 271.579Z" fill="#24262D"/>
<path d="M174.835 102.08L168.947 99.2713L183.415 78.4086L189.304 81.2177L174.835 102.08ZM174.781 74.2903L161.747 87.1695L162.68 83.5026L162.68 83.5041L165.55 72.3874C165.55 72.3874 166.282 70.2366 163.728 69.0185L154.447 64.5917L154.156 64.9228C154.156 64.9228 156.712 66.867 159.082 70.446L154.826 92.5367L160.961 95.4632L181.119 77.3132L174.781 74.2903V74.2903ZM210.31 119.001L215.717 121.58L221.791 96.7123L217.058 94.4545C214.872 93.4119 213.535 94.8435 213.535 94.8435L194.768 111.588L200.907 114.515L203.737 111.741L211.223 115.312L210.31 119.001ZM207.646 107.909L214.778 100.921L212.481 110.215L207.646 107.909ZM203.423 94.6282L206.58 90.172C206.58 90.172 204.457 87.9489 201.754 86.6596C198.831 85.2657 191.283 83.2329 188.32 89.4434C185.533 95.2867 193.643 99.2442 192.18 102.313C190.716 105.383 183.672 101.348 182.184 98.2627L178.887 102.924C178.887 102.924 180.907 105.455 184.924 107.371C188.943 109.288 195.997 110.099 198.699 104.436C201.504 98.5551 193.547 94.0877 194.766 91.5309C195.987 88.9738 201.565 92.0378 203.423 94.6282V94.6282Z" fill="#24262D"/>
<path d="M162.68 83.5041L165.55 72.3874C165.55 72.3874 166.282 70.2366 163.728 69.0186L154.447 64.5917L154.156 64.9228C154.156 64.9228 158.176 67.9749 160.802 73.4795C163.314 78.7416 162.68 83.5041 162.68 83.5041Z" fill="#E2E2E2"/>
</svg>
