<svg width="1440" height="900" viewBox="0 0 1440 900" fill="none" xmlns="http://www.w3.org/2000/svg">
<mask id="mask0_112_2" style="mask-type:alpha" maskUnits="userSpaceOnUse" x="994" y="142" width="787" height="708">
<path d="M1354.59 842.196C1532.43 889.005 1690.13 701.421 1746.75 601.778C1757.72 584.812 1779.87 535.232 1780.74 472.638C1781.83 394.395 1622.83 395.763 1568.67 357.261C1514.5 318.76 1476.29 239.66 1397.51 172.542C1318.72 105.425 1227.43 159.927 1201.82 251.217C1176.21 342.508 1023.7 249.134 997.173 454.027C970.65 658.92 1132.29 783.686 1354.59 842.196Z" fill="#0B56FA"/>
</mask>
<g mask="url(#mask0_112_2)">
<rect x="1041.31" y="-92.3202" width="1256.55" height="8.35841" transform="rotate(36.8196 1041.31 -92.3202)" fill="#25356A" fill-opacity="0.05"/>
<rect x="1027.95" y="-74.4775" width="1256.55" height="8.35841" transform="rotate(36.8196 1027.95 -74.4775)" fill="#25356A" fill-opacity="0.05"/>
<rect x="1014.59" y="-56.6345" width="1256.55" height="8.35841" transform="rotate(36.8196 1014.59 -56.6345)" fill="#25356A" fill-opacity="0.05"/>
<rect x="1001.23" y="-38.7915" width="1256.55" height="8.35841" transform="rotate(36.8196 1001.23 -38.7915)" fill="#25356A" fill-opacity="0.05"/>
<rect x="987.875" y="-20.9485" width="1256.55" height="8.35841" transform="rotate(36.8196 987.875 -20.9485)" fill="#25356A" fill-opacity="0.05"/>
<rect x="974.517" y="-3.10547" width="1256.55" height="8.35841" transform="rotate(36.8196 974.517 -3.10547)" fill="#25356A" fill-opacity="0.05"/>
<rect x="961.159" y="14.7375" width="1256.55" height="8.35841" transform="rotate(36.8196 961.159 14.7375)" fill="#25356A" fill-opacity="0.05"/>
<rect x="947.802" y="32.5806" width="1256.55" height="8.35841" transform="rotate(36.8196 947.802 32.5806)" fill="#25356A" fill-opacity="0.05"/>
<rect x="934.444" y="50.4236" width="1256.55" height="8.35841" transform="rotate(36.8196 934.444 50.4236)" fill="#25356A" fill-opacity="0.05"/>
<rect x="921.086" y="68.2666" width="1256.55" height="8.35841" transform="rotate(36.8196 921.086 68.2666)" fill="#25356A" fill-opacity="0.05"/>
<rect x="907.728" y="86.1096" width="1256.55" height="8.35841" transform="rotate(36.8196 907.728 86.1096)" fill="#25356A" fill-opacity="0.05"/>
<rect x="894.37" y="103.953" width="1256.55" height="8.35841" transform="rotate(36.8196 894.37 103.953)" fill="#25356A" fill-opacity="0.05"/>
<rect x="881.012" y="121.796" width="1256.55" height="8.35841" transform="rotate(36.8196 881.012 121.796)" fill="#25356A" fill-opacity="0.05"/>
<rect x="867.655" y="139.639" width="1256.55" height="8.35841" transform="rotate(36.8196 867.655 139.639)" fill="#25356A" fill-opacity="0.05"/>
<rect x="854.297" y="157.482" width="1256.55" height="8.35841" transform="rotate(36.8196 854.297 157.482)" fill="#25356A" fill-opacity="0.05"/>
<rect x="840.939" y="175.325" width="1256.55" height="8.35841" transform="rotate(36.8196 840.939 175.325)" fill="#25356A" fill-opacity="0.05"/>
<rect x="827.581" y="193.168" width="1256.55" height="8.35841" transform="rotate(36.8196 827.581 193.168)" fill="#25356A" fill-opacity="0.05"/>
<rect x="814.224" y="211.011" width="1256.55" height="8.35841" transform="rotate(36.8196 814.224 211.011)" fill="#25356A" fill-opacity="0.05"/>
<rect x="800.866" y="228.854" width="1256.55" height="8.35841" transform="rotate(36.8196 800.866 228.854)" fill="#25356A" fill-opacity="0.05"/>
<rect x="787.508" y="246.697" width="1256.55" height="8.35841" transform="rotate(36.8196 787.508 246.697)" fill="#25356A" fill-opacity="0.05"/>
<rect x="774.15" y="264.54" width="1256.55" height="8.35841" transform="rotate(36.8196 774.15 264.54)" fill="#25356A" fill-opacity="0.05"/>
<rect x="759.123" y="284.613" width="1256.55" height="8.35841" transform="rotate(36.8196 759.123 284.613)" fill="#25356A" fill-opacity="0.05"/>
<rect x="744.095" y="304.687" width="1256.55" height="8.35841" transform="rotate(36.8196 744.095 304.687)" fill="#25356A" fill-opacity="0.05"/>
<rect x="729.068" y="324.76" width="1256.55" height="8.35841" transform="rotate(36.8196 729.068 324.76)" fill="#25356A" fill-opacity="0.05"/>
<rect x="714.04" y="344.833" width="1256.55" height="8.35841" transform="rotate(36.8196 714.04 344.833)" fill="#25356A" fill-opacity="0.05"/>
<rect x="699.013" y="364.907" width="1256.55" height="8.35841" transform="rotate(36.8196 699.013 364.907)" fill="#25356A" fill-opacity="0.05"/>
<rect x="683.985" y="384.98" width="1256.55" height="8.35841" transform="rotate(36.8196 683.985 384.98)" fill="#25356A" fill-opacity="0.05"/>
</g>
<g opacity="0.05">
<path opacity="0.91" d="M275.117 285.125C-60.0647 -8.5956 -178.262 156.47 -186.528 169.05C-186.874 169.577 -186.997 170.124 -186.991 170.754L-183.061 593.638C-181.901 718.457 -81.271 820.781 40.5524 793.575C179.056 762.644 341.425 691.378 397.401 527.846C451.187 370.713 301.966 308.652 275.117 285.125Z" fill="#6FCF97"/>
</g>
<g opacity="0.91" filter="url(#filter0_d_112_2)">
<path d="M317.788 835.867C196.465 729.574 114.184 705.574 61.4203 709.374C8.69217 713.171 -14.8312 744.753 -18.5999 750.342C-18.8829 750.762 -18.9951 751.204 -18.9894 751.81L-17.0821 956.99C-16.3894 1031.5 15.1832 1100.94 63.5789 1144.24C111.946 1187.52 177.093 1204.68 245.14 1174.76C315.219 1143.95 379.206 1093.87 407.059 1012.52C416.852 983.915 417.387 959.696 412.423 939.19C407.457 918.678 396.972 901.815 384.625 887.957C372.274 874.096 358.076 863.258 345.711 854.798C340.866 851.483 336.312 848.54 332.257 845.919C331.136 845.194 330.052 844.494 329.011 843.817C324.232 840.71 320.31 838.076 317.788 835.867Z" stroke="#4F4F4F" stroke-width="2"/>
</g>
<mask id="mask1_112_2" style="mask-type:alpha" maskUnits="userSpaceOnUse" x="-20" y="649" width="362" height="390">
<path opacity="0.69" d="M260.682 754.312C60.4857 579.095 -12.2673 673.01 -19.407 683.441C-19.834 684.065 -19.9963 684.746 -19.9893 685.502L-18.8363 809.403C-17.4447 958.951 113.604 1094.17 240.673 1015.31C282.152 989.563 317.283 953.121 334.955 901.556C367.623 806.233 276.99 768.585 260.682 754.312Z" fill="#25356A" fill-opacity="0.35"/>
</mask>
<g mask="url(#mask1_112_2)">
<circle cx="-0.953357" cy="644.072" r="5.07203" fill="#25356A" fill-opacity="0.35"/>
<circle cx="15.9534" cy="644.072" r="5.07203" fill="#25356A" fill-opacity="0.35"/>
<circle cx="32.8601" cy="644.072" r="5.07203" fill="#25356A" fill-opacity="0.35"/>
<circle cx="49.767" cy="644.072" r="5.07203" fill="#25356A" fill-opacity="0.35"/>
<circle cx="66.6737" cy="644.072" r="5.07203" fill="#25356A" fill-opacity="0.35"/>
<circle cx="83.5806" cy="644.072" r="5.07203" fill="#25356A" fill-opacity="0.35"/>
<circle cx="100.487" cy="644.072" r="5.07203" fill="#25356A" fill-opacity="0.35"/>
<circle cx="117.394" cy="644.072" r="5.07203" fill="#25356A" fill-opacity="0.35"/>
<circle cx="134.301" cy="644.072" r="5.07203" fill="#25356A" fill-opacity="0.35"/>
<circle cx="151.208" cy="644.072" r="5.07203" fill="#25356A" fill-opacity="0.35"/>
<circle cx="168.114" cy="644.072" r="5.07203" fill="#25356A" fill-opacity="0.35"/>
<circle cx="185.021" cy="644.072" r="5.07203" fill="#25356A" fill-opacity="0.35"/>
<circle cx="201.928" cy="644.072" r="5.07203" fill="#25356A" fill-opacity="0.35"/>
<circle cx="218.835" cy="644.072" r="5.07203" fill="#25356A" fill-opacity="0.35"/>
<circle cx="235.741" cy="644.072" r="5.07203" fill="#25356A" fill-opacity="0.35"/>
<circle cx="252.648" cy="644.072" r="5.07203" fill="#25356A" fill-opacity="0.35"/>
<circle cx="269.555" cy="644.072" r="5.07203" fill="#25356A" fill-opacity="0.35"/>
<circle cx="286.462" cy="644.072" r="5.07203" fill="#25356A" fill-opacity="0.35"/>
<circle cx="303.369" cy="644.072" r="5.07203" fill="#25356A" fill-opacity="0.35"/>
<circle cx="320.275" cy="644.072" r="5.07203" fill="#25356A" fill-opacity="0.35"/>
<circle cx="337.182" cy="644.072" r="5.07203" fill="#25356A" fill-opacity="0.35"/>
<circle cx="15.9534" cy="660.979" r="5.07203" fill="#25356A" fill-opacity="0.35"/>
<circle cx="32.8601" cy="660.979" r="5.07203" fill="#25356A" fill-opacity="0.35"/>
<circle cx="49.767" cy="660.979" r="5.07203" fill="#25356A" fill-opacity="0.35"/>
<circle cx="66.6737" cy="660.979" r="5.07203" fill="#25356A" fill-opacity="0.35"/>
<circle cx="83.5806" cy="660.979" r="5.07203" fill="#25356A" fill-opacity="0.35"/>
<circle cx="134.301" cy="660.979" r="5.07203" fill="#25356A" fill-opacity="0.35"/>
<circle cx="151.208" cy="660.979" r="5.07203" fill="#25356A" fill-opacity="0.35"/>
<circle cx="168.114" cy="660.979" r="5.07203" fill="#25356A" fill-opacity="0.35"/>
<circle cx="185.021" cy="660.979" r="5.07203" fill="#25356A" fill-opacity="0.35"/>
<circle cx="201.928" cy="660.979" r="5.07203" fill="#25356A" fill-opacity="0.35"/>
<circle cx="218.835" cy="660.979" r="5.07203" fill="#25356A" fill-opacity="0.35"/>
<circle cx="235.741" cy="660.979" r="5.07203" fill="#25356A" fill-opacity="0.35"/>
<circle cx="252.648" cy="660.979" r="5.07203" fill="#25356A" fill-opacity="0.35"/>
<circle cx="269.555" cy="660.979" r="5.07203" fill="#25356A" fill-opacity="0.35"/>
<circle cx="286.462" cy="660.979" r="5.07203" fill="#25356A" fill-opacity="0.35"/>
<circle cx="303.369" cy="660.979" r="5.07203" fill="#25356A" fill-opacity="0.35"/>
<circle cx="320.275" cy="660.979" r="5.07203" fill="#25356A" fill-opacity="0.35"/>
<circle cx="337.182" cy="660.979" r="5.07203" fill="#25356A" fill-opacity="0.35"/>
<circle cx="-0.953357" cy="677.885" r="5.07203" fill="#25356A" fill-opacity="0.35"/>
<circle cx="15.9534" cy="677.885" r="5.07203" fill="#25356A" fill-opacity="0.35"/>
<circle cx="32.8601" cy="677.885" r="5.07203" fill="#25356A" fill-opacity="0.35"/>
<circle cx="49.767" cy="677.885" r="5.07203" fill="#25356A" fill-opacity="0.35"/>
<circle cx="66.6737" cy="677.885" r="5.07203" fill="#25356A" fill-opacity="0.35"/>
<circle cx="83.5806" cy="677.885" r="5.07203" fill="#25356A" fill-opacity="0.35"/>
<circle cx="100.487" cy="677.885" r="5.07203" fill="#25356A" fill-opacity="0.35"/>
<circle cx="117.394" cy="677.885" r="5.07203" fill="#25356A" fill-opacity="0.35"/>
<circle cx="134.301" cy="677.885" r="5.07203" fill="#25356A" fill-opacity="0.35"/>
<circle cx="168.114" cy="677.885" r="5.07203" fill="#25356A" fill-opacity="0.35"/>
<circle cx="185.021" cy="677.885" r="5.07203" fill="#25356A" fill-opacity="0.35"/>
<circle cx="201.928" cy="677.885" r="5.07203" fill="#25356A" fill-opacity="0.35"/>
<circle cx="218.835" cy="677.885" r="5.07203" fill="#25356A" fill-opacity="0.35"/>
<circle cx="235.741" cy="677.885" r="5.07203" fill="#25356A" fill-opacity="0.35"/>
<circle cx="252.648" cy="677.885" r="5.07203" fill="#25356A" fill-opacity="0.35"/>
<circle cx="269.555" cy="677.885" r="5.07203" fill="#25356A" fill-opacity="0.35"/>
<circle cx="286.462" cy="677.885" r="5.07203" fill="#25356A" fill-opacity="0.35"/>
<circle cx="303.369" cy="677.885" r="5.07203" fill="#25356A" fill-opacity="0.35"/>
<circle cx="320.275" cy="677.885" r="5.07203" fill="#25356A" fill-opacity="0.35"/>
<circle cx="337.182" cy="677.885" r="5.07203" fill="#25356A" fill-opacity="0.35"/>
<circle cx="-0.953357" cy="694.792" r="5.07203" fill="#25356A" fill-opacity="0.35"/>
<circle cx="15.9534" cy="694.792" r="5.07203" fill="#25356A" fill-opacity="0.35"/>
<circle cx="32.8601" cy="694.792" r="5.07203" fill="#25356A" fill-opacity="0.35"/>
<circle cx="49.767" cy="694.792" r="5.07203" fill="#25356A" fill-opacity="0.35"/>
<circle cx="66.6737" cy="694.792" r="5.07203" fill="#25356A" fill-opacity="0.35"/>
<circle cx="83.5806" cy="694.792" r="5.07203" fill="#25356A" fill-opacity="0.35"/>
<circle cx="100.487" cy="694.792" r="5.07203" fill="#25356A" fill-opacity="0.35"/>
<circle cx="117.394" cy="694.792" r="5.07203" fill="#25356A" fill-opacity="0.35"/>
<circle cx="134.301" cy="694.792" r="5.07203" fill="#25356A" fill-opacity="0.35"/>
<circle cx="151.208" cy="694.792" r="5.07203" fill="#25356A" fill-opacity="0.35"/>
<circle cx="168.114" cy="694.792" r="5.07203" fill="#25356A" fill-opacity="0.35"/>
<circle cx="201.928" cy="694.792" r="5.07203" fill="#25356A" fill-opacity="0.35"/>
<circle cx="218.835" cy="694.792" r="5.07203" fill="#25356A" fill-opacity="0.35"/>
<circle cx="235.741" cy="694.792" r="5.07203" fill="#25356A" fill-opacity="0.35"/>
<circle cx="252.648" cy="694.792" r="5.07203" fill="#25356A" fill-opacity="0.35"/>
<circle cx="269.555" cy="694.792" r="5.07203" fill="#25356A" fill-opacity="0.35"/>
<circle cx="286.462" cy="694.792" r="5.07203" fill="#25356A" fill-opacity="0.35"/>
<circle cx="303.369" cy="694.792" r="5.07203" fill="#25356A" fill-opacity="0.35"/>
<circle cx="320.275" cy="694.792" r="5.07203" fill="#25356A" fill-opacity="0.35"/>
<circle cx="337.182" cy="694.792" r="5.07203" fill="#25356A" fill-opacity="0.35"/>
<circle cx="-0.953357" cy="711.699" r="5.07203" fill="#25356A" fill-opacity="0.35"/>
<circle cx="15.9534" cy="711.699" r="5.07203" fill="#25356A" fill-opacity="0.35"/>
<circle cx="32.8601" cy="711.699" r="5.07203" fill="#25356A" fill-opacity="0.35"/>
<circle cx="49.767" cy="711.699" r="5.07203" fill="#25356A" fill-opacity="0.35"/>
<circle cx="66.6737" cy="711.699" r="5.07203" fill="#25356A" fill-opacity="0.35"/>
<circle cx="83.5806" cy="711.699" r="5.07203" fill="#25356A" fill-opacity="0.35"/>
<circle cx="100.487" cy="711.699" r="5.07203" fill="#25356A" fill-opacity="0.35"/>
<circle cx="117.394" cy="711.699" r="5.07203" fill="#25356A" fill-opacity="0.35"/>
<circle cx="134.301" cy="711.699" r="5.07203" fill="#25356A" fill-opacity="0.35"/>
<circle cx="151.208" cy="711.699" r="5.07203" fill="#25356A" fill-opacity="0.35"/>
<circle cx="168.114" cy="711.699" r="5.07203" fill="#25356A" fill-opacity="0.35"/>
<circle cx="185.021" cy="711.699" r="5.07203" fill="#25356A" fill-opacity="0.35"/>
<circle cx="218.835" cy="711.699" r="5.07203" fill="#25356A" fill-opacity="0.35"/>
<circle cx="235.741" cy="711.699" r="5.07203" fill="#25356A" fill-opacity="0.35"/>
<circle cx="252.648" cy="711.699" r="5.07203" fill="#25356A" fill-opacity="0.35"/>
<circle cx="269.555" cy="711.699" r="5.07203" fill="#25356A" fill-opacity="0.35"/>
<circle cx="286.462" cy="711.699" r="5.07203" fill="#25356A" fill-opacity="0.35"/>
<circle cx="303.369" cy="711.699" r="5.07203" fill="#25356A" fill-opacity="0.35"/>
<circle cx="320.275" cy="711.699" r="5.07203" fill="#25356A" fill-opacity="0.35"/>
<circle cx="337.182" cy="711.699" r="5.07203" fill="#25356A" fill-opacity="0.35"/>
<circle cx="-0.953357" cy="728.606" r="5.07203" fill="#25356A" fill-opacity="0.35"/>
<circle cx="15.9534" cy="728.606" r="5.07203" fill="#25356A" fill-opacity="0.35"/>
<circle cx="32.8601" cy="728.606" r="5.07203" fill="#25356A" fill-opacity="0.35"/>
<circle cx="49.767" cy="728.606" r="5.07203" fill="#25356A" fill-opacity="0.35"/>
<circle cx="66.6737" cy="728.606" r="5.07203" fill="#25356A" fill-opacity="0.35"/>
<circle cx="83.5806" cy="728.606" r="5.07203" fill="#25356A" fill-opacity="0.35"/>
<circle cx="100.487" cy="728.606" r="5.07203" fill="#25356A" fill-opacity="0.35"/>
<circle cx="117.394" cy="728.606" r="5.07203" fill="#25356A" fill-opacity="0.35"/>
<circle cx="134.301" cy="728.606" r="5.07203" fill="#25356A" fill-opacity="0.35"/>
<circle cx="151.208" cy="728.606" r="5.07203" fill="#25356A" fill-opacity="0.35"/>
<circle cx="168.114" cy="728.606" r="5.07203" fill="#25356A" fill-opacity="0.35"/>
<circle cx="185.021" cy="728.606" r="5.07203" fill="#25356A" fill-opacity="0.35"/>
<circle cx="201.928" cy="728.606" r="5.07203" fill="#25356A" fill-opacity="0.35"/>
<circle cx="218.835" cy="728.606" r="5.07203" fill="#25356A" fill-opacity="0.35"/>
<circle cx="252.648" cy="728.606" r="5.07203" fill="#25356A" fill-opacity="0.35"/>
<circle cx="269.555" cy="728.606" r="5.07203" fill="#25356A" fill-opacity="0.35"/>
<circle cx="286.462" cy="728.606" r="5.07203" fill="#25356A" fill-opacity="0.35"/>
<circle cx="303.369" cy="728.606" r="5.07203" fill="#25356A" fill-opacity="0.35"/>
<circle cx="320.275" cy="728.606" r="5.07203" fill="#25356A" fill-opacity="0.35"/>
<circle cx="337.182" cy="728.606" r="5.07203" fill="#25356A" fill-opacity="0.35"/>
<circle cx="-0.953357" cy="745.513" r="5.07203" fill="#25356A" fill-opacity="0.35"/>
<circle cx="15.9534" cy="745.513" r="5.07203" fill="#25356A" fill-opacity="0.35"/>
<circle cx="32.8601" cy="745.513" r="5.07203" fill="#25356A" fill-opacity="0.35"/>
<circle cx="49.767" cy="745.513" r="5.07203" fill="#25356A" fill-opacity="0.35"/>
<circle cx="66.6737" cy="745.513" r="5.07203" fill="#25356A" fill-opacity="0.35"/>
<circle cx="83.5806" cy="745.513" r="5.07203" fill="#25356A" fill-opacity="0.35"/>
<circle cx="100.487" cy="745.513" r="5.07203" fill="#25356A" fill-opacity="0.35"/>
<circle cx="117.394" cy="745.513" r="5.07203" fill="#25356A" fill-opacity="0.35"/>
<circle cx="134.301" cy="745.513" r="5.07203" fill="#25356A" fill-opacity="0.35"/>
<circle cx="151.208" cy="745.513" r="5.07203" fill="#25356A" fill-opacity="0.35"/>
<circle cx="168.114" cy="745.513" r="5.07203" fill="#25356A" fill-opacity="0.35"/>
<circle cx="185.021" cy="745.513" r="5.07203" fill="#25356A" fill-opacity="0.35"/>
<circle cx="201.928" cy="745.513" r="5.07203" fill="#25356A" fill-opacity="0.35"/>
<circle cx="218.835" cy="745.513" r="5.07203" fill="#25356A" fill-opacity="0.35"/>
<circle cx="235.741" cy="745.513" r="5.07203" fill="#25356A" fill-opacity="0.35"/>
<circle cx="269.555" cy="745.513" r="5.07203" fill="#25356A" fill-opacity="0.35"/>
<circle cx="286.462" cy="745.513" r="5.07203" fill="#25356A" fill-opacity="0.35"/>
<circle cx="303.369" cy="745.513" r="5.07203" fill="#25356A" fill-opacity="0.35"/>
<circle cx="320.275" cy="745.513" r="5.07203" fill="#25356A" fill-opacity="0.35"/>
<circle cx="337.182" cy="745.513" r="5.07203" fill="#25356A" fill-opacity="0.35"/>
<circle cx="-0.953357" cy="762.419" r="5.07203" fill="#25356A" fill-opacity="0.35"/>
<circle cx="15.9534" cy="762.419" r="5.07203" fill="#25356A" fill-opacity="0.35"/>
<circle cx="32.8601" cy="762.419" r="5.07203" fill="#25356A" fill-opacity="0.35"/>
<circle cx="49.767" cy="762.419" r="5.07203" fill="#25356A" fill-opacity="0.35"/>
<circle cx="66.6737" cy="762.419" r="5.07203" fill="#25356A" fill-opacity="0.35"/>
<circle cx="83.5806" cy="762.419" r="5.07203" fill="#25356A" fill-opacity="0.35"/>
<circle cx="100.487" cy="762.419" r="5.07203" fill="#25356A" fill-opacity="0.35"/>
<circle cx="117.394" cy="762.419" r="5.07203" fill="#25356A" fill-opacity="0.35"/>
<circle cx="134.301" cy="762.419" r="5.07203" fill="#25356A" fill-opacity="0.35"/>
<circle cx="151.208" cy="762.419" r="5.07203" fill="#25356A" fill-opacity="0.35"/>
<circle cx="168.114" cy="762.419" r="5.07203" fill="#25356A" fill-opacity="0.35"/>
<circle cx="185.021" cy="762.419" r="5.07203" fill="#25356A" fill-opacity="0.35"/>
<circle cx="201.928" cy="762.419" r="5.07203" fill="#25356A" fill-opacity="0.35"/>
<circle cx="218.835" cy="762.419" r="5.07203" fill="#25356A" fill-opacity="0.35"/>
<circle cx="235.741" cy="762.419" r="5.07203" fill="#25356A" fill-opacity="0.35"/>
<circle cx="252.648" cy="762.419" r="5.07203" fill="#25356A" fill-opacity="0.35"/>
<circle cx="286.462" cy="762.419" r="5.07203" fill="#25356A" fill-opacity="0.35"/>
<circle cx="303.369" cy="762.419" r="5.07203" fill="#25356A" fill-opacity="0.35"/>
<circle cx="320.275" cy="762.419" r="5.07203" fill="#25356A" fill-opacity="0.35"/>
<circle cx="337.182" cy="762.419" r="5.07203" fill="#25356A" fill-opacity="0.35"/>
<circle cx="-0.953357" cy="779.326" r="5.07203" fill="#25356A" fill-opacity="0.35"/>
<circle cx="15.9534" cy="779.326" r="5.07203" fill="#25356A" fill-opacity="0.35"/>
<circle cx="32.8601" cy="779.326" r="5.07203" fill="#25356A" fill-opacity="0.35"/>
<circle cx="49.767" cy="779.326" r="5.07203" fill="#25356A" fill-opacity="0.35"/>
<circle cx="66.6737" cy="779.326" r="5.07203" fill="#25356A" fill-opacity="0.35"/>
<circle cx="83.5806" cy="779.326" r="5.07203" fill="#25356A" fill-opacity="0.35"/>
<circle cx="100.487" cy="779.326" r="5.07203" fill="#25356A" fill-opacity="0.35"/>
<circle cx="117.394" cy="779.326" r="5.07203" fill="#25356A" fill-opacity="0.35"/>
<circle cx="134.301" cy="779.326" r="5.07203" fill="#25356A" fill-opacity="0.35"/>
<circle cx="151.208" cy="779.326" r="5.07203" fill="#25356A" fill-opacity="0.35"/>
<circle cx="168.114" cy="779.326" r="5.07203" fill="#25356A" fill-opacity="0.35"/>
<circle cx="185.021" cy="779.326" r="5.07203" fill="#25356A" fill-opacity="0.35"/>
<circle cx="201.928" cy="779.326" r="5.07203" fill="#25356A" fill-opacity="0.35"/>
<circle cx="218.835" cy="779.326" r="5.07203" fill="#25356A" fill-opacity="0.35"/>
<circle cx="235.741" cy="779.326" r="5.07203" fill="#25356A" fill-opacity="0.35"/>
<circle cx="252.648" cy="779.326" r="5.07203" fill="#25356A" fill-opacity="0.35"/>
<circle cx="269.555" cy="779.326" r="5.07203" fill="#25356A" fill-opacity="0.35"/>
<circle cx="286.462" cy="779.326" r="5.07203" fill="#25356A" fill-opacity="0.35"/>
<circle cx="320.275" cy="779.326" r="5.07203" fill="#25356A" fill-opacity="0.35"/>
<circle cx="337.182" cy="779.326" r="5.07203" fill="#25356A" fill-opacity="0.35"/>
<circle cx="-0.953357" cy="796.233" r="5.07203" fill="#25356A" fill-opacity="0.35"/>
<circle cx="15.9534" cy="796.233" r="5.07203" fill="#25356A" fill-opacity="0.35"/>
<circle cx="32.8601" cy="796.233" r="5.07203" fill="#25356A" fill-opacity="0.35"/>
<circle cx="49.767" cy="796.233" r="5.07203" fill="#25356A" fill-opacity="0.35"/>
<circle cx="66.6737" cy="796.233" r="5.07203" fill="#25356A" fill-opacity="0.35"/>
<circle cx="83.5806" cy="796.233" r="5.07203" fill="#25356A" fill-opacity="0.35"/>
<circle cx="100.487" cy="796.233" r="5.07203" fill="#25356A" fill-opacity="0.35"/>
<circle cx="117.394" cy="796.233" r="5.07203" fill="#25356A" fill-opacity="0.35"/>
<circle cx="134.301" cy="796.233" r="5.07203" fill="#25356A" fill-opacity="0.35"/>
<circle cx="151.208" cy="796.233" r="5.07203" fill="#25356A" fill-opacity="0.35"/>
<circle cx="168.114" cy="796.233" r="5.07203" fill="#25356A" fill-opacity="0.35"/>
<circle cx="185.021" cy="796.233" r="5.07203" fill="#25356A" fill-opacity="0.35"/>
<circle cx="201.928" cy="796.233" r="5.07203" fill="#25356A" fill-opacity="0.35"/>
<circle cx="218.835" cy="796.233" r="5.07203" fill="#25356A" fill-opacity="0.35"/>
<circle cx="235.741" cy="796.233" r="5.07203" fill="#25356A" fill-opacity="0.35"/>
<circle cx="252.648" cy="796.233" r="5.07203" fill="#25356A" fill-opacity="0.35"/>
<circle cx="269.555" cy="796.233" r="5.07203" fill="#25356A" fill-opacity="0.35"/>
<circle cx="286.462" cy="796.233" r="5.07203" fill="#25356A" fill-opacity="0.35"/>
<circle cx="303.369" cy="796.233" r="5.07203" fill="#25356A" fill-opacity="0.35"/>
<circle cx="337.182" cy="796.233" r="5.07203" fill="#25356A" fill-opacity="0.35"/>
<circle cx="-0.953357" cy="813.14" r="5.07203" fill="#25356A" fill-opacity="0.35"/>
<circle cx="15.9534" cy="813.14" r="5.07203" fill="#25356A" fill-opacity="0.35"/>
<circle cx="32.8601" cy="813.14" r="5.07203" fill="#25356A" fill-opacity="0.35"/>
<circle cx="49.767" cy="813.14" r="5.07203" fill="#25356A" fill-opacity="0.35"/>
<circle cx="66.6737" cy="813.14" r="5.07203" fill="#25356A" fill-opacity="0.35"/>
<circle cx="83.5806" cy="813.14" r="5.07203" fill="#25356A" fill-opacity="0.35"/>
<circle cx="100.487" cy="813.14" r="5.07203" fill="#25356A" fill-opacity="0.35"/>
<circle cx="117.394" cy="813.14" r="5.07203" fill="#25356A" fill-opacity="0.35"/>
<circle cx="134.301" cy="813.14" r="5.07203" fill="#25356A" fill-opacity="0.35"/>
<circle cx="151.208" cy="813.14" r="5.07203" fill="#25356A" fill-opacity="0.35"/>
<circle cx="168.114" cy="813.14" r="5.07203" fill="#25356A" fill-opacity="0.35"/>
<circle cx="185.021" cy="813.14" r="5.07203" fill="#25356A" fill-opacity="0.35"/>
<circle cx="201.928" cy="813.14" r="5.07203" fill="#25356A" fill-opacity="0.35"/>
<circle cx="218.835" cy="813.14" r="5.07203" fill="#25356A" fill-opacity="0.35"/>
<circle cx="235.741" cy="813.14" r="5.07203" fill="#25356A" fill-opacity="0.35"/>
<circle cx="252.648" cy="813.14" r="5.07203" fill="#25356A" fill-opacity="0.35"/>
<circle cx="269.555" cy="813.14" r="5.07203" fill="#25356A" fill-opacity="0.35"/>
<circle cx="286.462" cy="813.14" r="5.07203" fill="#25356A" fill-opacity="0.35"/>
<circle cx="303.369" cy="813.14" r="5.07203" fill="#25356A" fill-opacity="0.35"/>
<circle cx="320.275" cy="813.14" r="5.07203" fill="#25356A" fill-opacity="0.35"/>
<circle cx="337.182" cy="813.14" r="5.07203" fill="#25356A" fill-opacity="0.35"/>
<circle cx="-0.953357" cy="830.047" r="5.07203" fill="#25356A" fill-opacity="0.35"/>
<circle cx="15.9534" cy="830.047" r="5.07203" fill="#25356A" fill-opacity="0.35"/>
<circle cx="32.8601" cy="830.047" r="5.07203" fill="#25356A" fill-opacity="0.35"/>
<circle cx="49.767" cy="830.047" r="5.07203" fill="#25356A" fill-opacity="0.35"/>
<circle cx="66.6737" cy="830.047" r="5.07203" fill="#25356A" fill-opacity="0.35"/>
<circle cx="83.5806" cy="830.047" r="5.07203" fill="#25356A" fill-opacity="0.35"/>
<circle cx="100.487" cy="830.047" r="5.07203" fill="#25356A" fill-opacity="0.35"/>
<circle cx="117.394" cy="830.047" r="5.07203" fill="#25356A" fill-opacity="0.35"/>
<circle cx="134.301" cy="830.047" r="5.07203" fill="#25356A" fill-opacity="0.35"/>
<circle cx="151.208" cy="830.047" r="5.07203" fill="#25356A" fill-opacity="0.35"/>
<circle cx="168.114" cy="830.047" r="5.07203" fill="#25356A" fill-opacity="0.35"/>
<circle cx="185.021" cy="830.047" r="5.07203" fill="#25356A" fill-opacity="0.35"/>
<circle cx="201.928" cy="830.047" r="5.07203" fill="#25356A" fill-opacity="0.35"/>
<circle cx="218.835" cy="830.047" r="5.07203" fill="#25356A" fill-opacity="0.35"/>
<circle cx="235.741" cy="830.047" r="5.07203" fill="#25356A" fill-opacity="0.35"/>
<circle cx="252.648" cy="830.047" r="5.07203" fill="#25356A" fill-opacity="0.35"/>
<circle cx="269.555" cy="830.047" r="5.07203" fill="#25356A" fill-opacity="0.35"/>
<circle cx="286.462" cy="830.047" r="5.07203" fill="#25356A" fill-opacity="0.35"/>
<circle cx="303.369" cy="830.047" r="5.07203" fill="#25356A" fill-opacity="0.35"/>
<circle cx="320.275" cy="830.047" r="5.07203" fill="#25356A" fill-opacity="0.35"/>
<circle cx="-0.953357" cy="846.953" r="5.07203" fill="#25356A" fill-opacity="0.35"/>
<circle cx="15.9534" cy="846.953" r="5.07203" fill="#25356A" fill-opacity="0.35"/>
<circle cx="32.8601" cy="846.953" r="5.07203" fill="#25356A" fill-opacity="0.35"/>
<circle cx="49.767" cy="846.953" r="5.07203" fill="#25356A" fill-opacity="0.35"/>
<circle cx="66.6737" cy="846.953" r="5.07203" fill="#25356A" fill-opacity="0.35"/>
<circle cx="83.5806" cy="846.953" r="5.07203" fill="#25356A" fill-opacity="0.35"/>
<circle cx="100.487" cy="846.953" r="5.07203" fill="#25356A" fill-opacity="0.35"/>
<circle cx="117.394" cy="846.953" r="5.07203" fill="#25356A" fill-opacity="0.35"/>
<circle cx="134.301" cy="846.953" r="5.07203" fill="#25356A" fill-opacity="0.35"/>
<circle cx="151.208" cy="846.953" r="5.07203" fill="#25356A" fill-opacity="0.35"/>
<circle cx="168.114" cy="846.953" r="5.07203" fill="#25356A" fill-opacity="0.35"/>
<circle cx="185.021" cy="846.953" r="5.07203" fill="#25356A" fill-opacity="0.35"/>
<circle cx="201.928" cy="846.953" r="5.07203" fill="#25356A" fill-opacity="0.35"/>
<circle cx="218.835" cy="846.953" r="5.07203" fill="#25356A" fill-opacity="0.35"/>
<circle cx="235.741" cy="846.953" r="5.07203" fill="#25356A" fill-opacity="0.35"/>
<circle cx="252.648" cy="846.953" r="5.07203" fill="#25356A" fill-opacity="0.35"/>
<circle cx="269.555" cy="846.953" r="5.07203" fill="#25356A" fill-opacity="0.35"/>
<circle cx="286.462" cy="846.953" r="5.07203" fill="#25356A" fill-opacity="0.35"/>
<circle cx="303.369" cy="846.953" r="5.07203" fill="#25356A" fill-opacity="0.35"/>
<circle cx="320.275" cy="846.953" r="5.07203" fill="#25356A" fill-opacity="0.35"/>
<circle cx="-0.953357" cy="863.86" r="5.07203" fill="#25356A" fill-opacity="0.35"/>
<circle cx="15.9534" cy="863.86" r="5.07203" fill="#25356A" fill-opacity="0.35"/>
<circle cx="32.8601" cy="863.86" r="5.07203" fill="#25356A" fill-opacity="0.35"/>
<circle cx="49.767" cy="863.86" r="5.07203" fill="#25356A" fill-opacity="0.35"/>
<circle cx="66.6737" cy="863.86" r="5.07203" fill="#25356A" fill-opacity="0.35"/>
<circle cx="83.5806" cy="863.86" r="5.07203" fill="#25356A" fill-opacity="0.35"/>
<circle cx="100.487" cy="863.86" r="5.07203" fill="#25356A" fill-opacity="0.35"/>
<circle cx="117.394" cy="863.86" r="5.07203" fill="#25356A" fill-opacity="0.35"/>
<circle cx="134.301" cy="863.86" r="5.07203" fill="#25356A" fill-opacity="0.35"/>
<circle cx="151.208" cy="863.86" r="5.07203" fill="#25356A" fill-opacity="0.35"/>
<circle cx="168.114" cy="863.86" r="5.07203" fill="#25356A" fill-opacity="0.35"/>
<circle cx="185.021" cy="863.86" r="5.07203" fill="#25356A" fill-opacity="0.35"/>
<circle cx="201.928" cy="863.86" r="5.07203" fill="#25356A" fill-opacity="0.35"/>
<circle cx="218.835" cy="863.86" r="5.07203" fill="#25356A" fill-opacity="0.35"/>
<circle cx="235.741" cy="863.86" r="5.07203" fill="#25356A" fill-opacity="0.35"/>
<circle cx="252.648" cy="863.86" r="5.07203" fill="#25356A" fill-opacity="0.35"/>
<circle cx="269.555" cy="863.86" r="5.07203" fill="#25356A" fill-opacity="0.35"/>
<circle cx="286.462" cy="863.86" r="5.07203" fill="#25356A" fill-opacity="0.35"/>
<circle cx="303.369" cy="863.86" r="5.07203" fill="#25356A" fill-opacity="0.35"/>
<circle cx="320.275" cy="863.86" r="5.07203" fill="#25356A" fill-opacity="0.35"/>
<circle cx="337.182" cy="863.86" r="5.07203" fill="#25356A" fill-opacity="0.35"/>
<circle cx="-0.953357" cy="880.767" r="5.07203" fill="#25356A" fill-opacity="0.35"/>
<circle cx="15.9534" cy="880.767" r="5.07203" fill="#25356A" fill-opacity="0.35"/>
<circle cx="32.8601" cy="880.767" r="5.07203" fill="#25356A" fill-opacity="0.35"/>
<circle cx="49.767" cy="880.767" r="5.07203" fill="#25356A" fill-opacity="0.35"/>
<circle cx="66.6737" cy="880.767" r="5.07203" fill="#25356A" fill-opacity="0.35"/>
<circle cx="83.5806" cy="880.767" r="5.07203" fill="#25356A" fill-opacity="0.35"/>
<circle cx="100.487" cy="880.767" r="5.07203" fill="#25356A" fill-opacity="0.35"/>
<circle cx="117.394" cy="880.767" r="5.07203" fill="#25356A" fill-opacity="0.35"/>
<circle cx="134.301" cy="880.767" r="5.07203" fill="#25356A" fill-opacity="0.35"/>
<circle cx="151.208" cy="880.767" r="5.07203" fill="#25356A" fill-opacity="0.35"/>
<circle cx="168.114" cy="880.767" r="5.07203" fill="#25356A" fill-opacity="0.35"/>
<circle cx="185.021" cy="880.767" r="5.07203" fill="#25356A" fill-opacity="0.35"/>
<circle cx="201.928" cy="880.767" r="5.07203" fill="#25356A" fill-opacity="0.35"/>
<circle cx="218.835" cy="880.767" r="5.07203" fill="#25356A" fill-opacity="0.35"/>
<circle cx="235.741" cy="880.767" r="5.07203" fill="#25356A" fill-opacity="0.35"/>
<circle cx="252.648" cy="880.767" r="5.07203" fill="#25356A" fill-opacity="0.35"/>
<circle cx="269.555" cy="880.767" r="5.07203" fill="#25356A" fill-opacity="0.35"/>
<circle cx="286.462" cy="880.767" r="5.07203" fill="#25356A" fill-opacity="0.35"/>
<circle cx="303.369" cy="880.767" r="5.07203" fill="#25356A" fill-opacity="0.35"/>
<circle cx="320.275" cy="880.767" r="5.07203" fill="#25356A" fill-opacity="0.35"/>
<circle cx="-0.953357" cy="897.674" r="5.07203" fill="#25356A" fill-opacity="0.35"/>
<circle cx="15.9534" cy="897.674" r="5.07203" fill="#25356A" fill-opacity="0.35"/>
<circle cx="32.8601" cy="897.674" r="5.07203" fill="#25356A" fill-opacity="0.35"/>
<circle cx="49.767" cy="897.674" r="5.07203" fill="#25356A" fill-opacity="0.35"/>
<circle cx="66.6737" cy="897.674" r="5.07203" fill="#25356A" fill-opacity="0.35"/>
<circle cx="83.5806" cy="897.674" r="5.07203" fill="#25356A" fill-opacity="0.35"/>
<circle cx="100.487" cy="897.674" r="5.07203" fill="#25356A" fill-opacity="0.35"/>
<circle cx="117.394" cy="897.674" r="5.07203" fill="#25356A" fill-opacity="0.35"/>
<circle cx="134.301" cy="897.674" r="5.07203" fill="#25356A" fill-opacity="0.35"/>
<circle cx="151.208" cy="897.674" r="5.07203" fill="#25356A" fill-opacity="0.35"/>
<circle cx="168.114" cy="897.674" r="5.07203" fill="#25356A" fill-opacity="0.35"/>
<circle cx="185.021" cy="897.674" r="5.07203" fill="#25356A" fill-opacity="0.35"/>
<circle cx="201.928" cy="897.674" r="5.07203" fill="#25356A" fill-opacity="0.35"/>
<circle cx="218.835" cy="897.674" r="5.07203" fill="#25356A" fill-opacity="0.35"/>
<circle cx="235.741" cy="897.674" r="5.07203" fill="#25356A" fill-opacity="0.35"/>
<circle cx="252.648" cy="897.674" r="5.07203" fill="#25356A" fill-opacity="0.35"/>
<circle cx="269.555" cy="897.674" r="5.07203" fill="#25356A" fill-opacity="0.35"/>
<circle cx="286.462" cy="897.674" r="5.07203" fill="#25356A" fill-opacity="0.35"/>
<circle cx="303.369" cy="897.674" r="5.07203" fill="#25356A" fill-opacity="0.35"/>
<circle cx="320.275" cy="897.674" r="5.07203" fill="#25356A" fill-opacity="0.35"/>
</g>
<g opacity="0.91" filter="url(#filter1_d_112_2)">
<path d="M298.447 835.115C55.6277 622.377 -31.7042 738.327 -39.429 749.783C-39.8513 750.409 -39.9964 751.063 -39.9894 751.819L-38.082 956.999C-36.6919 1106.54 88.6374 1235.87 225.543 1175.68C295.772 1144.8 360.03 1094.55 388.005 1012.84C427.397 897.785 318.11 852.342 298.447 835.115Z" fill="#6FCF97"/>
</g>
<defs>
<filter id="filter0_d_112_2" x="-55.9559" y="672.034" width="549.293" height="595.581" filterUnits="userSpaceOnUse" color-interpolation-filters="sRGB">
<feFlood flood-opacity="0" result="BackgroundImageFix"/>
<feColorMatrix in="SourceAlpha" type="matrix" values="0 0 0 0 0 0 0 0 0 0 0 0 0 0 0 0 0 0 127 0" result="hardAlpha"/>
<feOffset dx="20.4354" dy="20.4354"/>
<feGaussianBlur stdDeviation="28.2009"/>
<feColorMatrix type="matrix" values="0 0 0 0 0 0 0 0 0 0 0 0 0 0 0 0 0 0 0.04 0"/>
<feBlend mode="normal" in2="BackgroundImageFix" result="effect1_dropShadow_112_2"/>
<feBlend mode="normal" in="SourceGraphic" in2="effect1_dropShadow_112_2" result="shape"/>
</filter>
<filter id="filter1_d_112_2" x="-75.9559" y="672.034" width="549.293" height="595.581" filterUnits="userSpaceOnUse" color-interpolation-filters="sRGB">
<feFlood flood-opacity="0" result="BackgroundImageFix"/>
<feColorMatrix in="SourceAlpha" type="matrix" values="0 0 0 0 0 0 0 0 0 0 0 0 0 0 0 0 0 0 127 0" result="hardAlpha"/>
<feOffset dx="20.4354" dy="20.4354"/>
<feGaussianBlur stdDeviation="28.2009"/>
<feColorMatrix type="matrix" values="0 0 0 0 0 0 0 0 0 0 0 0 0 0 0 0 0 0 0.04 0"/>
<feBlend mode="normal" in2="BackgroundImageFix" result="effect1_dropShadow_112_2"/>
<feBlend mode="normal" in="SourceGraphic" in2="effect1_dropShadow_112_2" result="shape"/>
</filter>
</defs>
</svg>
